HIERARCHY
ROOT RootJoint
{
    OFFSET   0.000000   0.000000   0.000000
    CHANNELS 6 Xposition Yposition Zposition Xrotation Yrotation Zrotation
    JOINT pelvis_lowerback
    {
        OFFSET   0.000000   0.093605   0.000000
        CHANNELS 3 Xrotation Yrotation Zrotation
        JOINT lowerback_torso
        {
            OFFSET   0.000000   0.100000   0.000000
            CHANNELS 3 Xrotation Yrotation Zrotation
            JOINT torso_head
            {
                OFFSET   0.000000   0.282350   0.000000
                CHANNELS 3 Xrotation Yrotation Zrotation
                End Site
                {
                    OFFSET   0.000000   0.192650   0.000000
                }
            }
            JOINT rTorso_Clavicle
            {
                OFFSET  -0.001000   0.157500   0.000000
                CHANNELS 3 Xrotation Yrotation Zrotation
                JOINT rShoulder
                {
                    OFFSET  -0.117647   0.000000   0.000000
                    CHANNELS 3 Xrotation Yrotation Zrotation
                    JOINT rElbow
                    {
                        OFFSET  -0.245000   0.000000   0.000000
                        CHANNELS 3 Xrotation Yrotation Zrotation
                        JOINT rWrist
                        {
                            OFFSET  -0.240000   0.000000   0.000000
                            CHANNELS 3 Xrotation Yrotation Zrotation
                            End Site
                            {
                                OFFSET  -0.116353  -0.002500   0.000000
                            }
                        }
                    }
                }
            }
            JOINT lTorso_Clavicle
            {
                OFFSET   0.001000   0.157500   0.000000
                CHANNELS 3 Xrotation Yrotation Zrotation
                JOINT lShoulder
                {
                    OFFSET   0.117647   0.000000   0.000000
                    CHANNELS 3 Xrotation Yrotation Zrotation
                    JOINT lElbow
                    {
                        OFFSET   0.245000   0.000000   0.000000
                        CHANNELS 3 Xrotation Yrotation Zrotation
                        JOINT lWrist
                        {
                            OFFSET   0.240000   0.000000   0.000000
                            CHANNELS 3 Xrotation Yrotation Zrotation
                            End Site
                            {
                                OFFSET   0.116353  -0.002500   0.000000
                            }
                        }
                    }
                }
            }
        }
    }
    JOINT rHip
    {
        OFFSET  -0.100000  -0.051395   0.000000
        CHANNELS 3 Xrotation Yrotation Zrotation
        JOINT rKnee
        {
            OFFSET   0.000000  -0.410000   0.000000
            CHANNELS 3 Xrotation Yrotation Zrotation
            JOINT rAnkle
            {
                OFFSET   0.000000  -0.390000   0.000000
                CHANNELS 3 Xrotation Yrotation Zrotation
                JOINT rToeJoint
                {
                    OFFSET   0.000000  -0.050000   0.130000
                    CHANNELS 3 Xrotation Yrotation Zrotation
                    End Site
                    {
                        OFFSET  -0.010000   0.002000   0.060000
                    }
                }
            }
        }
    }
    JOINT lHip
    {
        OFFSET   0.100000  -0.051395   0.000000
        CHANNELS 3 Xrotation Yrotation Zrotation
        JOINT lKnee
        {
            OFFSET   0.000000  -0.410000   0.000000
            CHANNELS 3 Xrotation Yrotation Zrotation
            JOINT lAnkle
            {
                OFFSET   0.000000  -0.390000   0.000000
                CHANNELS 3 Xrotation Yrotation Zrotation
                JOINT lToeJoint
                {
                    OFFSET   0.000000  -0.050000   0.130000
                    CHANNELS 3 Xrotation Yrotation Zrotation
                    End Site
                    {
                        OFFSET   0.010000   0.002000   0.060000
                    }
                }
            }
        }
    }
}
MOTION
Frames: 7
Frame Time:   0.008333
 -2.222194   0.925440   4.565394   1.653540  18.019142  -2.955076  10.784012   1.417470   0.531667  -0.398373  -2.924007   1.684398  -6.133976   0.870044  -1.232004  -6.942706  28.947370   5.247153 -32.407028  19.057610  39.836473   0.001271  52.033959   0.001310  -5.256624   4.602871 -20.823685 -11.774681 -34.027160  -4.285629 -35.729972 -17.820018 -37.649057  -0.000528 -45.238823  -0.005024  -8.639906  -4.500423  28.946657  -7.717156  -3.781287  -1.213886   5.651850  -0.000018  -0.000028   7.365956  -4.353573   3.778422  -9.922178   0.000003   0.000259   3.128541   2.975258   4.327555  -0.023689   0.000024   0.000207  -3.869277   6.321912   1.894333  -1.298711  -0.000042  -0.000044
 -2.222081   0.925381   4.565973   1.727351  18.058178  -2.944191  10.635671   1.444389   0.502176  -0.408024  -2.910928   1.693572  -6.074996   0.801258  -1.257892  -6.856279  28.621022   5.386290 -32.224033  18.741915  40.078399   0.000951  52.150642   0.001511  -5.373968   4.753783 -20.842597 -11.635712 -33.597436  -4.381738 -35.544706 -17.506249 -38.048748  -0.000642 -45.733150  -0.005807  -8.727181  -4.642989  29.045295  -7.660114  -3.749133  -1.248650   5.503636  -0.000029  -0.000115   7.270312  -4.367454   3.779257  -9.745890   0.000002   0.000307   3.092273   2.899827   4.301602  -0.018951   0.000019   0.000164  -3.883146   6.329580   1.900128  -1.328518  -0.000030  -0.000029
 -2.221963   0.925322   4.566588   1.789015  18.099251  -2.928289  10.485169   1.476189   0.476692  -0.406793  -2.894737   1.702009  -6.029340   0.736792  -1.281026  -6.744481  28.267011   5.525216 -32.025628  18.409531  40.294686   0.000685  52.245979   0.001599  -5.504512   4.861770 -20.917663 -11.453666 -33.144263  -4.488617 -35.331634 -17.174402 -38.429988  -0.000738 -46.186965  -0.006311  -8.815174  -4.780532  29.156974  -7.592201  -3.717951  -1.284897   5.364238  -0.000036  -0.000180   7.166187  -4.381232   3.780417  -9.568884   0.000000   0.000346   3.070813   2.825356   4.275386  -0.015161   0.000015   0.000130  -3.896036   6.332559   1.903170  -1.363408  -0.000021  -0.000014
 -2.221872   0.925264   4.567170   1.841688  18.141116  -2.910628  10.347159   1.509680   0.454227  -0.392283  -2.876470   1.709601  -5.992242   0.676931  -1.301157  -6.623508  27.907533   5.655322 -31.824773  18.078765  40.487660   0.000485  52.326285   0.001595  -5.645710   4.923522 -21.022557 -11.255379 -32.689564  -4.595805 -35.108473 -16.838899 -38.783125  -0.000821 -46.599202  -0.006545  -8.924160  -4.867544  29.281785  -7.524890  -3.689744  -1.319457   5.237905  -0.000038  -0.000221   7.063833  -4.395246   3.780717  -9.400329  -0.000001   0.000368   3.055566   2.754835   4.250878  -0.012129   0.000011   0.000104  -3.907662   6.334113   1.905455  -1.395826  -0.000014  -0.000004
 -2.221820   0.925205   4.567689   1.889054  18.184606  -2.892618  10.225484   1.543486   0.433404  -0.366300  -2.856983   1.716100  -5.959501   0.621148  -1.319009  -6.501336  27.553951   5.776123 -31.628116  17.757835  40.661492   0.000341  52.395835   0.001529  -5.791903   4.954245 -21.143741 -11.053895 -32.244699  -4.700013 -34.885018 -16.509615 -39.109431  -0.000882 -46.975963  -0.006574  -9.049805  -4.912452  29.416554  -7.462388  -3.664828  -1.351849   5.121829  -0.000037  -0.000246   6.966076  -4.409938   3.779769  -9.239159  -0.000003   0.000378   3.040680   2.688369   4.228323  -0.009703   0.000009   0.000082  -3.918432   6.335046   1.907389  -1.421734  -0.000009   0.000002
 -2.221810   0.925143   4.568137   1.933289  18.230177  -2.874911  10.120545   1.577083   0.413398  -0.331041  -2.836795   1.721367  -5.929190   0.569105  -1.335155  -6.381808  27.212918   5.888542 -31.438928  17.450979  40.819895   0.000244  52.457343   0.001428  -5.938995   4.965666 -21.272964 -10.855953 -31.816519  -4.800230 -34.666672 -16.192357 -39.411686  -0.000916 -47.322345  -0.006453  -9.185001  -4.929040  29.557026  -7.406039  -3.643020  -1.382065   5.013359  -0.000034  -0.000260   6.873381  -4.425343   3.777426  -9.083166  -0.000004   0.000381   3.023281   2.625795   4.207669  -0.007762   0.000007   0.000066  -3.929031   6.335672   1.909067  -1.438977  -0.000005   0.000004
 -2.221841   0.925077   4.568515   1.975511  18.277891  -2.857808  10.031439   1.610223   0.393812  -0.288484  -2.816223   1.725436  -5.900454   0.520536  -1.349978  -6.266818  26.888289   5.993680 -31.258770  17.160329  40.965813   0.000182  52.512586   0.001306  -6.084477   4.965264 -21.404485 -10.665083 -31.408960  -4.896233 -34.456392 -15.890295 -39.692606  -0.000921 -47.642206  -0.006226  -9.324442  -4.927637  29.699377  -7.356051  -3.624023  -1.410186   4.910784  -0.000029  -0.000268   6.785576  -4.441353   3.773666  -8.930810  -0.000005   0.000380   3.002226   2.566921   4.188819  -0.006210   0.000005   0.000052  -3.939963   6.336146   1.910521  -1.446766  -0.000004   0.000004
